<svg width="32" height="32" viewBox="0 0 32 32" fill="none" xmlns="http://www.w3.org/2000/svg">
<path d="M30.5292 11.4152H23.3527L18.3078 0.861897C18.1269 0.483534 17.8211 0.204237 17.4466 0.075404C17.0721 -0.0534292 16.6738 -0.016271 16.3251 0.179962C16.2038 0.248176 16.0953 0.332528 16 0.429017C15.9046 0.332596 15.7961 0.248176 15.6749 0.179962C15.3262 -0.016271 14.9278 -0.0533614 14.5533 0.075404C14.1788 0.204169 13.873 0.483534 13.6921 0.861897L8.3745 11.9858C8.19363 12.3641 8.15938 12.7963 8.27812 13.2026C8.31862 13.3412 8.3765 13.4705 8.4475 13.5893H1.47075C1.17669 13.5893 0.9375 13.3298 0.9375 13.0108C0.9375 12.6918 1.17675 12.4323 1.47075 12.4323H6.81481C7.07369 12.4323 7.28356 12.2046 7.28356 11.9237C7.28356 11.6429 7.07369 11.4152 6.81481 11.4152H1.47075C0.659812 11.4152 0 12.131 0 13.0108C0 13.7405 0.453875 14.3568 1.07131 14.5462L3.78625 30.255C3.96094 31.2661 4.776 32 5.72425 32H26.2758C27.2241 32 28.0391 31.2661 28.2138 30.255L30.9287 14.5461C31.5461 14.3568 32 13.7405 32 13.0108C32 12.1309 31.3402 11.4152 30.5292 11.4152ZM16.7567 1.08295C16.8831 1.01182 17.0276 0.998324 17.1633 1.04504C17.2991 1.09169 17.41 1.193 17.4756 1.33017L22.7932 12.4541C22.8588 12.5913 22.8712 12.748 22.8281 12.8953C22.7851 13.0426 22.6917 13.1629 22.5653 13.234C22.4389 13.3052 22.2944 13.3186 22.1586 13.272C22.0228 13.2253 21.9119 13.124 21.8464 12.9869L16.5288 1.86286C16.3934 1.5797 16.4957 1.22982 16.7567 1.08295ZM22.9987 14.6065L22.5551 19.5685H16.4688V14.6065H22.9987ZM16 2.96581L21.0142 13.455C21.0364 13.5014 21.0605 13.5461 21.0863 13.5893H10.9137C10.9395 13.5461 10.9636 13.5014 10.9858 13.4551L11.4747 12.4323H18.6094C18.8682 12.4323 19.0781 12.2047 19.0781 11.9238C19.0781 11.6429 18.8682 11.4152 18.6094 11.4152H11.9609L16 2.96581ZM9.20675 12.454L14.5244 1.3301C14.59 1.19293 14.7009 1.09163 14.8367 1.04498C14.8898 1.02667 14.9443 1.01765 14.9984 1.01765C15.0828 1.01765 15.1664 1.03962 15.2433 1.08288C15.5043 1.22982 15.6066 1.57963 15.4712 1.8628L10.1535 12.9867C10.0879 13.1239 9.97706 13.2252 9.84125 13.2719C9.70556 13.3185 9.56112 13.3051 9.43462 13.2339C9.30819 13.1628 9.21481 13.0425 9.17181 12.8951C9.12875 12.7479 9.14119 12.5913 9.20675 12.454ZM2.03556 14.6065H8.05944L8.503 19.5685H2.89313L2.03556 14.6065ZM3.06894 20.5855H8.59394L9.0375 25.5474H3.92644L3.06894 20.5855ZM5.72419 30.983C5.22681 30.983 4.79931 30.598 4.70769 30.0676L4.10225 26.5645H9.12838L9.52338 30.983H5.72419ZM15.5312 30.983H10.4652L10.0703 26.5645H15.5312V30.983ZM15.5312 25.5474H9.97931L9.53575 20.5855H15.5312V25.5474ZM15.5312 19.5685H9.44487L9.00131 14.6065H15.5312V19.5685ZM21.5348 30.983H16.4688V26.5645H21.9298L21.5348 30.983ZM22.0207 25.5475H16.4688V20.5856H22.4643L22.0207 25.5475ZM27.2923 30.0676C27.2007 30.598 26.7731 30.983 26.2758 30.983H22.4766L22.8716 26.5645H27.8978L27.2923 30.0676ZM28.0736 25.5475H22.9626L23.4061 20.5856H28.9311L28.0736 25.5475ZM29.1069 19.5684H23.4971L23.9406 14.6064H29.9644L29.1069 19.5684ZM30.5292 13.5894H30.5216H23.5525C23.6235 13.4705 23.6813 13.3413 23.7219 13.2026C23.7958 12.9495 23.8104 12.6863 23.7671 12.4323H30.5292C30.8233 12.4323 31.0625 12.6919 31.0625 13.0109C31.0625 13.3298 30.8232 13.5894 30.5292 13.5894Z" fill="#9E2A2B" fill-opacity="0.99"/>
</svg>
