<svg width="188" height="40" viewBox="0 0 188 40" fill="none" xmlns="http://www.w3.org/2000/svg">
<path d="M35.2941 8.43988L34.4227 18.2864L35.2941 27.1952L37.5817 28.133L39.8693 27.1952L40.7407 18.2864L39.8693 8.43988L37.5817 7.8147L35.2941 8.43988Z" fill="#C4E83B"/>
<path d="M44.4445 8.43996L42.1569 7.5022L39.8693 8.43996V27.1953L42.1569 28.1331L44.4445 27.1953C44.4445 25.9946 44.4445 17.0856 44.4445 15.9421L43.544 14.921L44.4445 13.2088V8.43996Z" fill="#9DDB2C"/>
<path d="M35.2941 31.8841H39.8693L40.7407 29.5397L39.8693 27.1953C38.3446 27.1953 36.8188 27.1953 35.2941 27.1953L34.4227 29.5397L35.2941 31.8841Z" fill="#9DDB2C"/>
<path d="M44.4445 31.8841C44.4445 30.6217 44.4445 27.9308 44.4445 27.1953C42.9197 27.1953 41.394 27.1953 39.8693 27.1953V31.8841H42.1569H44.4445Z" fill="#95CB40"/>
<path d="M35.2941 8.43981H39.8693L41.8301 6.09539L39.8693 3.75098C38.3446 3.75098 36.8188 3.75098 35.2941 3.75098L34.4227 6.09539L35.2941 8.43981Z" fill="#9DDB2C"/>
<path d="M44.4445 8.43981C44.4445 7.17733 44.4445 4.48644 44.4445 3.75098C42.9197 3.75098 41.394 3.75098 39.8693 3.75098V8.43981H44.4445Z" fill="#95CB40"/>
<path d="M35.2941 19.7732L34.4227 21.0998L35.2941 22.4264L39.8693 19.1442L40.7407 17.8176L39.8693 16.491C39.3535 16.8611 35.8377 19.3832 35.2941 19.7732Z" fill="#9DDB2C"/>
<path d="M44.4445 13.2087C43.9286 13.5788 40.4129 16.1009 39.8693 16.4909V19.1442C40.3851 18.7741 43.9008 16.252 44.4445 15.862C44.4445 14.9338 44.4445 14.1369 44.4445 13.2087Z" fill="#95CB40"/>
<path d="M22.2222 26.2575L20.915 26.8827L19.6078 26.2575L18.7364 16.8798L19.6078 5.62664L20.915 5.00146L22.2222 5.62664L23.0937 15.9421L22.2222 26.2575Z" fill="#4D5E80"/>
<path d="M24.8366 26.2575L23.5294 26.8827L22.2222 26.2575C22.2222 25.1118 22.2222 6.77234 22.2222 5.62664L23.5294 5.00146L24.8366 5.62664L25.7081 15.9421L24.8366 26.2575Z" fill="#3D4566"/>
<path d="M22.2222 5.6266H19.6078L18.7364 4.62625L19.6078 3.75106V0H22.2222L23.0937 2.8133L22.2222 5.6266Z" fill="#3D4566"/>
<path d="M24.8366 5.6266H22.2222C22.2222 4.94584 22.2222 0.685257 22.2222 0H24.8366V1.87553L25.7081 3.59477L24.8366 5.6266Z" fill="#2E2E4D"/>
<path d="M22.2222 16.8797C21.3079 16.8797 20.5222 16.8797 19.6078 16.8797L18.7364 15.9419L19.6078 15.0042H22.2222L23.0937 15.9419L22.2222 16.8797Z" fill="#3D4566"/>
<path d="M24.8366 16.8797C23.9223 16.8797 23.1366 16.8797 22.2222 16.8797C22.2222 16.2237 22.2222 15.6601 22.2222 15.0042H24.8366L25.7081 15.9419L24.8366 16.8797Z" fill="#2E2E4D"/>
<path d="M22.2222 31.8842C21.3079 31.8842 20.5222 31.8842 19.6078 31.8842L18.7364 29.0709L19.6078 26.2576H22.2222L23.0937 29.0709L22.2222 31.8842Z" fill="#3D4566"/>
<path d="M24.8366 31.8842C23.9223 31.8842 23.1366 31.8842 22.2222 31.8842C22.2222 31.2034 22.2222 26.9428 22.2222 26.2576H24.8366L25.7081 29.0709L24.8366 31.8842Z" fill="#2E2E4D"/>
<path d="M5.22874 31.884C4.59615 31.884 0.63676 31.884 -1.52588e-05 31.884V28.1329L0.871444 26.2574L-1.52588e-05 24.3819C-1.52588e-05 23.9586 -1.52588e-05 9.80074 -1.52588e-05 9.37762L0.871444 7.68964L-1.52588e-05 5.62655V1.87549H5.22874L6.1002 16.8797L5.22874 31.884Z" fill="#FFDF40"/>
<path d="M10.4575 31.884C9.82492 31.884 5.86552 31.884 5.22874 31.884C5.22874 31.0377 5.22874 2.72179 5.22874 1.87549H10.4575V3.75102L11.329 16.8797L10.4575 31.884Z" fill="#FFBE40"/>
<path d="M5.22874 9.37753C4.59615 9.37753 0.63676 9.37753 -1.52588e-05 9.37753C-1.52588e-05 8.92371 -1.52588e-05 6.08328 -1.52588e-05 5.62646H5.22874L6.1002 7.502L5.22874 9.37753Z" fill="#FFBE40"/>
<path d="M10.4575 9.37753C9.82492 9.37753 5.86552 9.37753 5.22874 9.37753C5.22874 8.92371 5.22874 6.08328 5.22874 5.62646H10.4575L11.329 7.502L10.4575 9.37753Z" fill="#FF9F40"/>
<path d="M5.22876 20.6308C4.77159 20.6308 4.37874 20.6308 3.92157 20.6308C3.92157 19.7232 3.92157 14.0423 3.92157 13.1287H5.22876L6.10022 16.8797L5.22876 20.6308Z" fill="#FFBE40"/>
<path d="M6.53594 20.6308C6.07877 20.6308 5.68591 20.6308 5.22874 20.6308C5.22874 19.7232 5.22874 14.0423 5.22874 13.1287H6.53594V20.6308Z" fill="#FF9F40"/>
<path d="M5.22874 28.1329C4.59615 28.1329 0.63676 28.1329 -1.52588e-05 28.1329C-1.52588e-05 27.6791 -1.52588e-05 24.8387 -1.52588e-05 24.3818H5.22874L6.1002 26.2574L5.22874 28.1329Z" fill="#FFBE40"/>
<path d="M10.4575 28.1329C9.82492 28.1329 5.86552 28.1329 5.22874 28.1329C5.22874 27.6791 5.22874 24.8387 5.22874 24.3818H10.4575L11.329 26.2574L10.4575 28.1329Z" fill="#FF9F40"/>
<path d="M10.4575 3.75098V5.23765L11.329 6.67375L10.4575 7.89097V10.8643L11.329 12.3004L10.4575 13.5194V16.4909L11.329 17.9972L10.4575 19.1442V28.1329L12.7451 28.7581L15.0327 28.1329L15.9041 15.9419L15.0327 3.75098C13.508 3.75098 11.9822 3.75098 10.4575 3.75098Z" fill="#5ECBF1"/>
<path d="M19.6078 3.75098C18.0831 3.75098 16.5574 3.75098 15.0327 3.75098V28.1329L17.3203 28.7581L19.6078 28.1329V25.7085L18.7364 24.3037L19.6078 23.0552V20.0819L18.7364 18.6615L19.6078 17.4286C19.6078 16.4831 19.6078 15.4008 19.6078 14.4553L18.7364 12.9098L19.6078 11.802V3.75098Z" fill="#4793FF"/>
<path d="M10.4575 31.8839H15.0327L15.9041 30.0083L15.0327 28.1328C13.508 28.1328 11.9822 28.1328 10.4575 28.1328V31.8839Z" fill="#4793FF"/>
<path d="M19.6078 31.8839C19.6078 31.4301 19.6078 28.5896 19.6078 28.1328C18.0831 28.1328 16.5574 28.1328 15.0327 28.1328V31.8839H19.6078Z" fill="#525CDD"/>
<path d="M10.4575 7.89105L15.0327 11.1732L15.9041 9.84661L15.0327 8.51998C14.5169 8.14987 11.0011 5.62778 10.4575 5.23779V7.89105Z" fill="#4793FF"/>
<path d="M19.6078 14.4552C19.6078 13.527 19.6078 12.7302 19.6078 11.802C19.092 11.4319 15.5763 8.90976 15.0327 8.51978V11.173C15.5485 11.5431 19.0642 14.0652 19.6078 14.4552Z" fill="#525CDD"/>
<path d="M10.4575 13.5175C10.9733 13.8876 14.4891 16.4097 15.0327 16.7997L15.9041 15.4731L15.0327 14.1464C14.5169 13.7763 11.0011 11.2542 10.4575 10.8643V13.5175Z" fill="#4793FF"/>
<path d="M19.6078 20.0819C19.6078 19.1537 19.6078 18.3569 19.6078 17.4287C19.092 17.0586 15.5763 14.5365 15.0327 14.1465V16.7997C15.5485 17.1698 19.0642 19.6919 19.6078 20.0819Z" fill="#525CDD"/>
<path d="M10.4575 19.1442L15.0327 22.4264L15.9041 21.0998L15.0327 19.7732C14.5169 19.4031 11.0011 16.881 10.4575 16.491V19.1442Z" fill="#4793FF"/>
<path d="M19.6078 25.7086C19.6078 24.7804 19.6078 23.9836 19.6078 23.0554C19.092 22.6853 15.5763 20.1632 15.0327 19.7732V22.4265C15.5485 22.7966 19.0642 25.3187 19.6078 25.7086Z" fill="#525CDD"/>
<path d="M30.0654 28.1329L27.451 28.7581L24.8366 28.1329C24.8366 27.1442 24.8366 11.3041 24.8366 10.3154L27.451 9.69019L30.0654 10.3154L30.9368 19.2241L30.0654 28.1329Z" fill="#FD7C50"/>
<path d="M35.2941 28.1329L32.6797 28.7581L30.0654 28.1329C30.0654 27.1442 30.0654 11.3041 30.0654 10.3154L32.6797 9.69019L35.2941 10.3154V28.1329Z" fill="#FD445F"/>
<path d="M30.0654 10.3155C29.4328 10.3155 25.4734 10.3155 24.8366 10.3155C24.8366 9.86164 24.8366 7.0212 24.8366 6.56439L27.451 5.93921L30.0654 6.56439L30.9368 8.43992L30.0654 10.3155Z" fill="#FD445F"/>
<path d="M35.2941 10.3155C34.6615 10.3155 30.7021 10.3155 30.0654 10.3155C30.0654 9.86164 30.0654 7.0212 30.0654 6.56439L32.6797 5.93921L35.2941 6.56439V10.3155Z" fill="#E30F5A"/>
<path d="M30.0654 6.56432C29.4328 6.56432 25.4734 6.56432 24.8366 6.56432C24.8366 5.30184 24.8366 2.61095 24.8366 1.87549H30.0654L30.9368 4.2199L30.0654 6.56432Z" fill="#FD7C50"/>
<path d="M35.2941 6.56432C34.6615 6.56432 30.7021 6.56432 30.0654 6.56432C30.0654 5.30184 30.0654 2.61095 30.0654 1.87549H35.2941V6.56432Z" fill="#FD445F"/>
<path d="M30.0654 31.8839C29.4328 31.8839 25.4734 31.8839 24.8366 31.8839C24.8366 31.4301 24.8366 28.5896 24.8366 28.1328H30.0654L30.9368 30.0083L30.0654 31.8839Z" fill="#FD445F"/>
<path d="M35.2941 31.8839C34.6615 31.8839 30.7021 31.8839 30.0654 31.8839C30.0654 31.4301 30.0654 28.5896 30.0654 28.1328H35.2941V31.8839Z" fill="#E30F5A"/>
<path d="M30.0654 24.3818C29.6082 24.3818 29.2153 24.3818 28.7582 24.3818C28.7582 24.0908 28.7582 14.3572 28.7582 14.0664H30.0654L30.9368 19.2241L30.0654 24.3818Z" fill="#FD445F"/>
<path d="M31.3725 24.3818C30.9154 24.3818 30.5225 24.3818 30.0654 24.3818C30.0654 24.0908 30.0654 14.3572 30.0654 14.0664H31.3725V24.3818Z" fill="#E30F5A"/>
<path d="M78.1758 19.7461L80.6484 26.4727C80.8672 27.0508 81.3359 27.3398 82.0547 27.3398H85.8516C86.9531 27.3398 87.5039 27.7266 87.5039 28.5C87.5039 29.0312 87.3086 29.4453 86.918 29.7422C86.5273 30.0469 85.9844 30.1992 85.2891 30.1992H81.3984C80.3672 30.1992 79.6406 30.0547 79.2188 29.7656C78.7969 29.4844 78.4141 28.8906 78.0703 27.9844L74.9648 19.5938L72.5391 25.5586C72.0703 26.7305 71.4023 27.3164 70.5352 27.3164C70.1758 27.3164 69.8672 27.1992 69.6094 26.9648C69.3516 26.7305 69.2227 26.4531 69.2227 26.1328C69.2227 25.875 69.2891 25.5781 69.4219 25.2422L69.5625 24.9023L72.6094 17.4023C73.0703 16.2617 73.3008 15.4727 73.3008 15.0352C73.3008 14.6523 73.1328 14.3242 72.7969 14.0508C72.4688 13.7695 72.082 13.6289 71.6367 13.6289C70.8398 13.6289 70.1211 13.9648 69.4805 14.6367C68.8477 15.3008 68.5312 16.0469 68.5312 16.875C68.5312 17.7812 69.0195 18.4102 69.9961 18.7617C70.5898 18.9727 70.8867 19.3398 70.8867 19.8633C70.8867 20.3008 70.7148 20.6641 70.3711 20.9531C70.0352 21.2344 69.6133 21.375 69.1055 21.375C68.1289 21.375 67.293 20.9609 66.5977 20.1328C65.9023 19.3047 65.5547 18.3164 65.5547 17.168C65.5547 15.457 66.1914 13.9648 67.4648 12.6914C68.7461 11.4102 70.2461 10.7695 71.9648 10.7695C73.2461 10.7695 74.3164 11.1445 75.1758 11.8945C76.0352 12.6445 76.4648 13.582 76.4648 14.707C76.4648 15.5039 76.2617 16.4023 75.8555 17.4023L75.4453 18.3984L81.5977 11.9648C82.2617 11.2695 82.8672 10.9219 83.4141 10.9219C83.7891 10.9219 84.1016 11.0469 84.3516 11.2969C84.6016 11.5391 84.7266 11.8477 84.7266 12.2227C84.7266 12.6836 84.4102 13.2461 83.7773 13.9102L78.1758 19.7461ZM91.6758 24.4453H93.082C94.0742 24.4453 94.5703 24.793 94.5703 25.4883C94.5703 25.9648 94.3945 26.3359 94.043 26.6016C93.6914 26.8672 93.207 27 92.5898 27H90.1406C89.6641 27 89.2617 26.8555 88.9336 26.5664C88.6133 26.2773 88.4531 25.9141 88.4531 25.4766C88.4531 25.2109 88.5625 24.8125 88.7812 24.2812L89.8125 21.7266C89.9219 21.4609 89.9805 21.2461 89.9883 21.082C89.9961 20.8945 89.918 20.7344 89.7539 20.6016C89.5977 20.4688 89.3945 20.4023 89.1445 20.4023C88.3398 20.4023 87.6914 21.0078 87.1992 22.2188L85.8164 25.6172C85.4023 26.6484 84.7852 27.1641 83.9648 27.1641C83.6289 27.1641 83.3438 27.0625 83.1094 26.8594C82.875 26.6562 82.7578 26.4062 82.7578 26.1094C82.7578 25.8906 82.8203 25.6289 82.9453 25.3242L83.0742 25.0078L85.4414 19.1719C85.7461 18.4141 86.2656 18.0352 87 18.0352C87.6016 18.0352 88.0312 18.3008 88.2891 18.832C89.125 18.1914 89.9219 17.8711 90.6797 17.8711C91.4141 17.8711 92.0195 18.082 92.4961 18.5039C92.9727 18.9258 93.2109 19.4609 93.2109 20.1094C93.2109 20.4688 93.125 20.8633 92.9531 21.293L91.6758 24.4453ZM98.2734 24.4453H99.5977C100.582 24.4453 101.074 24.793 101.074 25.4883C101.074 25.9648 100.898 26.3359 100.547 26.6016C100.203 26.8672 99.7188 27 99.0938 27H97.2305C96.543 27 96 26.8594 95.6016 26.5781C95.2109 26.2969 95.0156 25.9141 95.0156 25.4297C95.0156 25.1719 95.0977 24.8438 95.2617 24.4453L97.1953 19.6875L97.3242 19.3594C97.6836 18.4766 98.2617 18.0352 99.0586 18.0352C99.3867 18.0352 99.668 18.1445 99.9023 18.3633C100.145 18.582 100.266 18.8438 100.266 19.1484C100.266 19.3984 100.16 19.7812 99.9492 20.2969L98.2734 24.4453ZM99.8203 14.2969C100.273 14.2969 100.656 14.457 100.969 14.7773C101.289 15.0898 101.449 15.4727 101.449 15.9258C101.449 16.3789 101.289 16.7656 100.969 17.0859C100.656 17.3984 100.273 17.5547 99.8203 17.5547C99.3672 17.5547 98.9805 17.3984 98.6602 17.0859C98.3477 16.7656 98.1914 16.3789 98.1914 15.9258C98.1914 15.4727 98.3477 15.0898 98.6602 14.7773C98.9805 14.457 99.3672 14.2969 99.8203 14.2969ZM108.434 27.3281H109.84C110.832 27.3281 111.328 27.6719 111.328 28.3594C111.328 28.8359 111.152 29.207 110.801 29.4727C110.449 29.7461 109.965 29.8828 109.348 29.8828H107.402L106.91 31.0898C105.715 34.0195 103.969 35.4844 101.672 35.4844C100.469 35.4844 99.4688 35.1133 98.6719 34.3711C97.8672 33.6289 97.4648 32.6992 97.4648 31.582C97.4648 30.8555 97.6602 30.1719 98.0508 29.5312C98.4336 28.8984 98.9609 28.3945 99.6328 28.0195C100.461 27.5586 101.574 27.3281 102.973 27.3281H105.492L105.855 26.4141C105.363 26.7109 104.898 26.8594 104.461 26.8594C103.625 26.8594 102.945 26.5703 102.422 25.9922C101.906 25.4141 101.648 24.6602 101.648 23.7305C101.648 22.2305 102.176 20.8789 103.23 19.6758C104.285 18.4727 105.469 17.8711 106.781 17.8711C107.742 17.8711 108.461 18.1836 108.938 18.8086C109.305 18.1836 109.824 17.8711 110.496 17.8711C110.824 17.8711 111.102 17.9805 111.328 18.1992C111.562 18.4102 111.68 18.668 111.68 18.9727C111.68 19.2148 111.578 19.5859 111.375 20.0859L108.434 27.3281ZM106.91 23.8125L107.859 21.4922C107.938 21.2969 107.977 21.1367 107.977 21.0117C107.977 20.7773 107.871 20.582 107.66 20.4258C107.457 20.2695 107.199 20.1914 106.887 20.1914C106.324 20.1914 105.785 20.5156 105.27 21.1641C104.762 21.8047 104.508 22.4844 104.508 23.2031C104.508 24.0234 104.891 24.4336 105.656 24.4336C106.32 24.4336 106.738 24.2266 106.91 23.8125ZM104.449 29.8828H102.422C101.719 29.8828 101.172 30.0312 100.781 30.3281C100.398 30.625 100.207 31.043 100.207 31.582C100.207 31.9492 100.34 32.2617 100.605 32.5195C100.871 32.7773 101.199 32.9062 101.59 32.9062C102.152 32.9062 102.645 32.6836 103.066 32.2383C103.488 31.793 103.949 31.0078 104.449 29.8828ZM117.41 17.8711C118.543 17.8711 119.473 18.2305 120.199 18.9492C120.934 19.668 121.301 20.582 121.301 21.6914C121.301 22.5273 121.109 23.3594 120.727 24.1875C120.344 25.0078 119.848 25.6641 119.238 26.1562C118.832 26.4766 118.41 26.6992 117.973 26.8242C117.543 26.9414 116.938 27 116.156 27C114.883 27 114.023 26.8477 113.578 26.543C112.531 25.8242 112.008 24.7617 112.008 23.3555C112.008 21.8711 112.543 20.5859 113.613 19.5C114.684 18.4141 115.949 17.8711 117.41 17.8711ZM117.129 20.3672C116.551 20.3672 116.023 20.6523 115.547 21.2227C115.07 21.793 114.832 22.4219 114.832 23.1094C114.832 24.0156 115.34 24.4688 116.355 24.4688C116.949 24.4688 117.406 24.2852 117.727 23.918C118.258 23.3164 118.523 22.6289 118.523 21.8555C118.523 21.4102 118.395 21.0508 118.137 20.7773C117.879 20.5039 117.543 20.3672 117.129 20.3672ZM136.02 24.4453H137.414C138.398 24.4453 138.891 24.793 138.891 25.4883C138.891 25.9648 138.715 26.3359 138.363 26.6016C138.02 26.8672 137.539 27 136.922 27H134.543C134.027 27 133.609 26.8633 133.289 26.5898C132.969 26.3164 132.809 25.957 132.809 25.5117C132.809 25.207 132.914 24.793 133.125 24.2695L134.227 21.5859C134.289 21.4297 134.32 21.2852 134.32 21.1523C134.32 20.6445 134.062 20.3906 133.547 20.3906C133.148 20.3906 132.754 20.5703 132.363 20.9297C131.973 21.2891 131.66 21.7656 131.426 22.3594L130.113 25.5938C129.684 26.6406 129.059 27.1641 128.238 27.1641C127.918 27.1641 127.645 27.0586 127.418 26.8477C127.191 26.6367 127.078 26.3867 127.078 26.0977C127.078 25.8711 127.137 25.6055 127.254 25.3008L127.383 24.9844L128.707 21.7148C128.824 21.4258 128.883 21.1992 128.883 21.0352C128.883 20.8633 128.805 20.7148 128.648 20.5898C128.492 20.457 128.309 20.3906 128.098 20.3906C127.254 20.3906 126.586 21 126.094 22.2188L124.723 25.582C124.293 26.6367 123.672 27.1641 122.859 27.1641C122.539 27.1641 122.262 27.0625 122.027 26.8594C121.801 26.6484 121.688 26.3945 121.688 26.0977C121.688 25.8633 121.746 25.5977 121.863 25.3008L121.992 24.9844L124.324 19.2422C124.652 18.4375 125.145 18.0352 125.801 18.0352C126.48 18.0352 126.902 18.3555 127.066 18.9961C127.598 18.543 128.027 18.2422 128.355 18.0938C128.691 17.9453 129.102 17.8711 129.586 17.8711C130.633 17.8711 131.418 18.3281 131.941 19.2422C132.816 18.3281 133.801 17.8711 134.895 17.8711C135.645 17.8711 136.27 18.0898 136.77 18.5273C137.277 18.957 137.531 19.4883 137.531 20.1211C137.531 20.5195 137.445 20.9297 137.273 21.3516L136.02 24.4453ZM147.34 24.4453H148.629C149.613 24.4453 150.105 24.7891 150.105 25.4766C150.105 25.9531 149.93 26.3281 149.578 26.6016C149.227 26.8672 148.742 27 148.125 27H146.625C145.953 27 145.496 26.7383 145.254 26.2148C144.668 26.7383 144.102 27 143.555 27H142.219C141.359 27 140.664 26.6953 140.133 26.0859C139.609 25.4688 139.348 24.6641 139.348 23.6719C139.348 22.1719 139.863 20.832 140.895 19.6523C141.934 18.4648 143.105 17.8711 144.41 17.8711C145.41 17.8711 146.141 18.2188 146.602 18.9141C146.992 18.3281 147.504 18.0352 148.137 18.0352C148.48 18.0352 148.766 18.1445 148.992 18.3633C149.227 18.582 149.344 18.8516 149.344 19.1719C149.344 19.3906 149.281 19.6523 149.156 19.957L149.027 20.2734L147.34 24.4453ZM143.086 24.5039H143.379C144.02 24.5039 144.445 24.2422 144.656 23.7188L145.477 21.6914C145.586 21.4258 145.641 21.2031 145.641 21.0234C145.641 20.8125 145.535 20.6289 145.324 20.4727C145.121 20.3164 144.875 20.2383 144.586 20.2383C144.016 20.2383 143.461 20.5703 142.922 21.2344C142.383 21.8984 142.113 22.5859 142.113 23.2969C142.113 24.1016 142.438 24.5039 143.086 24.5039ZM159.246 24.4453H160.652C161.645 24.4453 162.141 24.793 162.141 25.4883C162.141 25.9648 161.965 26.3359 161.613 26.6016C161.262 26.8672 160.777 27 160.16 27H157.711C157.234 27 156.832 26.8555 156.504 26.5664C156.184 26.2773 156.023 25.9141 156.023 25.4766C156.023 25.2109 156.133 24.8125 156.352 24.2812L157.383 21.7266C157.492 21.4609 157.551 21.2461 157.559 21.082C157.566 20.8945 157.488 20.7344 157.324 20.6016C157.168 20.4688 156.965 20.4023 156.715 20.4023C155.91 20.4023 155.262 21.0078 154.77 22.2188L153.387 25.6172C152.973 26.6484 152.355 27.1641 151.535 27.1641C151.199 27.1641 150.914 27.0625 150.68 26.8594C150.445 26.6562 150.328 26.4062 150.328 26.1094C150.328 25.8906 150.391 25.6289 150.516 25.3242L150.645 25.0078L153.012 19.1719C153.316 18.4141 153.836 18.0352 154.57 18.0352C155.172 18.0352 155.602 18.3008 155.859 18.832C156.695 18.1914 157.492 17.8711 158.25 17.8711C158.984 17.8711 159.59 18.082 160.066 18.5039C160.543 18.9258 160.781 19.4609 160.781 20.1094C160.781 20.4688 160.695 20.8633 160.523 21.293L159.246 24.4453ZM165.844 24.4453H167.168C168.152 24.4453 168.645 24.793 168.645 25.4883C168.645 25.9648 168.469 26.3359 168.117 26.6016C167.773 26.8672 167.289 27 166.664 27H164.801C164.113 27 163.57 26.8594 163.172 26.5781C162.781 26.2969 162.586 25.9141 162.586 25.4297C162.586 25.1719 162.668 24.8438 162.832 24.4453L164.766 19.6875L164.895 19.3594C165.254 18.4766 165.832 18.0352 166.629 18.0352C166.957 18.0352 167.238 18.1445 167.473 18.3633C167.715 18.582 167.836 18.8438 167.836 19.1484C167.836 19.3984 167.73 19.7812 167.52 20.2969L165.844 24.4453ZM167.391 14.2969C167.844 14.2969 168.227 14.457 168.539 14.7773C168.859 15.0898 169.02 15.4727 169.02 15.9258C169.02 16.3789 168.859 16.7656 168.539 17.0859C168.227 17.3984 167.844 17.5547 167.391 17.5547C166.938 17.5547 166.551 17.3984 166.23 17.0859C165.918 16.7656 165.762 16.3789 165.762 15.9258C165.762 15.4727 165.918 15.0898 166.23 14.7773C166.551 14.457 166.938 14.2969 167.391 14.2969ZM177.105 24.4453H178.395C179.379 24.4453 179.871 24.7891 179.871 25.4766C179.871 25.9531 179.695 26.3281 179.344 26.6016C178.992 26.8672 178.508 27 177.891 27H176.391C175.719 27 175.262 26.7383 175.02 26.2148C174.434 26.7383 173.867 27 173.32 27H171.984C171.125 27 170.43 26.6953 169.898 26.0859C169.375 25.4688 169.113 24.6641 169.113 23.6719C169.113 22.1719 169.629 20.832 170.66 19.6523C171.699 18.4648 172.871 17.8711 174.176 17.8711C175.176 17.8711 175.906 18.2188 176.367 18.9141C176.758 18.3281 177.27 18.0352 177.902 18.0352C178.246 18.0352 178.531 18.1445 178.758 18.3633C178.992 18.582 179.109 18.8516 179.109 19.1719C179.109 19.3906 179.047 19.6523 178.922 19.957L178.793 20.2734L177.105 24.4453ZM172.852 24.5039H173.145C173.785 24.5039 174.211 24.2422 174.422 23.7188L175.242 21.6914C175.352 21.4258 175.406 21.2031 175.406 21.0234C175.406 20.8125 175.301 20.6289 175.09 20.4727C174.887 20.3164 174.641 20.2383 174.352 20.2383C173.781 20.2383 173.227 20.5703 172.688 21.2344C172.148 21.8984 171.879 22.5859 171.879 23.2969C171.879 24.1016 172.203 24.5039 172.852 24.5039Z" fill="black"/>
</svg>
