<svg width="248" height="69" viewBox="0 0 248 69" fill="none" xmlns="http://www.w3.org/2000/svg">
<path d="M47.6471 14.5588L46.4706 31.5441L47.6471 46.9118L50.7353 48.5294L53.8235 46.9118L55 31.5441L53.8235 14.5588L50.7353 13.4804L47.6471 14.5588Z" fill="#C4E83B"/>
<path d="M60 14.5588L56.9118 12.9412L53.8235 14.5588V46.9118L56.9118 48.5294L60 46.9118C60 44.8406 60 29.4725 60 27.5L58.7844 25.7386L60 22.7851V14.5588Z" fill="#9DDB2C"/>
<path d="M47.6471 55H53.8235L55 50.9559L53.8235 46.9117C51.7652 46.9117 49.7054 46.9117 47.6471 46.9117L46.4706 50.9559L47.6471 55Z" fill="#9DDB2C"/>
<path d="M60 55C60 52.8222 60 48.1804 60 46.9117C57.9417 46.9117 55.8819 46.9117 53.8235 46.9117V55H56.9118H60Z" fill="#95CB40"/>
<path d="M47.6471 14.5588H53.8235L56.4706 10.5147L53.8235 6.47058C51.7652 6.47058 49.7054 6.47058 47.6471 6.47058L46.4706 10.5147L47.6471 14.5588Z" fill="#9DDB2C"/>
<path d="M60 14.5588C60 12.381 60 7.73925 60 6.47058C57.9417 6.47058 55.8819 6.47058 53.8235 6.47058V14.5588H60Z" fill="#95CB40"/>
<path d="M47.6471 34.1086L46.4706 36.397L47.6471 38.6855L53.8235 33.0237L55 30.7353L53.8235 28.4468C53.1272 29.0853 48.3809 33.436 47.6471 34.1086Z" fill="#9DDB2C"/>
<path d="M60 22.7851C59.3037 23.4234 54.5574 27.7741 53.8235 28.4469V33.0237C54.5199 32.3854 59.2661 28.0347 60 27.362C60 25.7608 60 24.3862 60 22.7851V22.7851Z" fill="#95CB40"/>
<path d="M30 45.2941L28.2353 46.3725L26.4706 45.2941L25.2941 29.1176L26.4706 9.70587L28.2353 8.62744L30 9.70587L31.1765 27.5L30 45.2941Z" fill="#4D5E80"/>
<path d="M33.5294 45.2941L31.7647 46.3725L30 45.2941C30 43.3178 30 11.6822 30 9.70587L31.7647 8.62744L33.5294 9.70587L34.7059 27.5L33.5294 45.2941Z" fill="#3D4566"/>
<path d="M30 9.70588H26.4706L25.2941 7.98028L26.4706 6.47059V0H30L31.1765 4.85294L30 9.70588Z" fill="#3D4566"/>
<path d="M33.5294 9.70588H30C30 8.53158 30 1.18207 30 0H33.5294V3.23529L34.7059 6.20098L33.5294 9.70588Z" fill="#2E2E4D"/>
<path d="M30 29.1176C28.7656 29.1176 27.7049 29.1176 26.4706 29.1176L25.2941 27.5L26.4706 25.8823H30L31.1765 27.5L30 29.1176Z" fill="#3D4566"/>
<path d="M33.5294 29.1176C32.2951 29.1176 31.2344 29.1176 30 29.1176C30 27.9861 30 27.0138 30 25.8823H33.5294L34.7059 27.5L33.5294 29.1176Z" fill="#2E2E4D"/>
<path d="M30 55C28.7656 55 27.7049 55 26.4706 55L25.2941 50.1471L26.4706 45.2941H30L31.1765 50.1471L30 55Z" fill="#3D4566"/>
<path d="M33.5294 55C32.2951 55 31.2344 55 30 55C30 53.8257 30 46.4762 30 45.2941H33.5294L34.7059 50.1471L33.5294 55Z" fill="#2E2E4D"/>
<path d="M7.05881 55C6.20481 55 0.859631 55 -1.52588e-05 55V48.5294L1.17645 45.2941L-1.52588e-05 42.0588C-1.52588e-05 41.3286 -1.52588e-05 16.9063 -1.52588e-05 16.1765L1.17645 13.2647L-1.52588e-05 9.70588V3.23529H7.05881L8.23528 29.1176L7.05881 55Z" fill="#FFDF40"/>
<path d="M14.1176 55C13.2636 55 7.91846 55 7.05881 55C7.05881 53.5401 7.05881 4.69516 7.05881 3.23529H14.1176V6.47058L15.2941 29.1176L14.1176 55Z" fill="#FFBE40"/>
<path d="M7.05881 16.1765C6.20481 16.1765 0.859631 16.1765 -1.52588e-05 16.1765C-1.52588e-05 15.3936 -1.52588e-05 10.4939 -1.52588e-05 9.70587H7.05881L8.23528 12.9412L7.05881 16.1765Z" fill="#FFBE40"/>
<path d="M14.1176 16.1765C13.2636 16.1765 7.91846 16.1765 7.05881 16.1765C7.05881 15.3936 7.05881 10.4939 7.05881 9.70587H14.1176L15.2941 12.9412L14.1176 16.1765Z" fill="#FF9F40"/>
<path d="M7.05882 35.5882C6.44164 35.5882 5.91129 35.5882 5.29411 35.5882C5.29411 34.0225 5.29411 24.2231 5.29411 22.647H7.05882L8.23529 29.1176L7.05882 35.5882Z" fill="#FFBE40"/>
<path d="M8.82352 35.5882C8.20634 35.5882 7.67599 35.5882 7.05881 35.5882C7.05881 34.0225 7.05881 24.2231 7.05881 22.647H8.82352V35.5882Z" fill="#FF9F40"/>
<path d="M7.05881 48.5294C6.20481 48.5294 0.859631 48.5294 -1.52588e-05 48.5294C-1.52588e-05 47.7466 -1.52588e-05 42.8468 -1.52588e-05 42.0588H7.05881L8.23528 45.2941L7.05881 48.5294Z" fill="#FFBE40"/>
<path d="M14.1176 48.5294C13.2636 48.5294 7.91846 48.5294 7.05881 48.5294C7.05881 47.7466 7.05881 42.8468 7.05881 42.0588H14.1176L15.2941 45.2941L14.1176 48.5294Z" fill="#FF9F40"/>
<path d="M14.1176 6.47058V9.03509L15.2941 11.5124L14.1176 13.6121V18.7411L15.2941 21.2183L14.1176 23.3212V28.447L15.2941 31.0453L14.1176 33.0238V48.5294L17.2059 49.6078L20.2941 48.5294L21.4706 27.5L20.2941 6.47058C18.2358 6.47058 16.176 6.47058 14.1176 6.47058Z" fill="#5ECBF1"/>
<path d="M26.4706 6.47058C24.4122 6.47058 22.3525 6.47058 20.2941 6.47058V48.5294L23.3823 49.6078L26.4706 48.5294V44.3474L25.2941 41.924L26.4706 39.7704V34.6414L25.2941 32.1912L26.4706 30.0645C26.4706 28.4335 26.4706 26.5665 26.4706 24.9355L25.2941 22.2696L26.4706 20.3586V6.47058Z" fill="#4793FF"/>
<path d="M14.1176 55H20.2941L21.4706 51.7647L20.2941 48.5294C18.2358 48.5294 16.176 48.5294 14.1176 48.5294V55Z" fill="#4793FF"/>
<path d="M26.4706 55C26.4706 54.2172 26.4706 49.3174 26.4706 48.5294C24.4122 48.5294 22.3525 48.5294 20.2941 48.5294V55H26.4706Z" fill="#525CDD"/>
<path d="M14.1176 13.612L20.2941 19.2737L21.4706 16.9853L20.2941 14.6969C19.5978 14.0584 14.8515 9.70782 14.1176 9.0351V13.612Z" fill="#4793FF"/>
<path d="M26.4706 24.9355C26.4706 23.3343 26.4706 21.9598 26.4706 20.3586C25.7742 19.7202 21.028 15.3696 20.2941 14.6968V19.2737C20.9905 19.9121 25.7367 24.2628 26.4706 24.9355Z" fill="#525CDD"/>
<path d="M14.1176 23.3179C14.814 23.9562 19.5602 28.3069 20.2941 28.9796L21.4706 26.6912L20.2941 24.4028C19.5978 23.7643 14.8515 19.4137 14.1176 18.741V23.3179Z" fill="#4793FF"/>
<path d="M26.4706 34.6414C26.4706 33.0402 26.4706 31.6656 26.4706 30.0645C25.7742 29.4262 21.028 25.0755 20.2941 24.4027V28.9796C20.9905 29.618 25.7367 33.9686 26.4706 34.6414Z" fill="#525CDD"/>
<path d="M14.1176 33.0237L20.2941 38.6855L21.4706 36.397L20.2941 34.1086C19.5978 33.4703 14.8515 29.1196 14.1176 28.4468V33.0237Z" fill="#4793FF"/>
<path d="M26.4706 44.3473C26.4706 42.7461 26.4706 41.3715 26.4706 39.7704C25.7742 39.1321 21.028 34.7813 20.2941 34.1086V38.6855C20.9905 39.3239 25.7367 43.6745 26.4706 44.3473Z" fill="#525CDD"/>
<path d="M40.5882 48.5294L37.0588 49.6078L33.5294 48.5294C33.5294 46.8238 33.5294 19.4996 33.5294 17.7941L37.0588 16.7157L40.5882 17.7941L41.7647 33.1617L40.5882 48.5294Z" fill="#FD7C50"/>
<path d="M47.647 48.5294L44.1176 49.6078L40.5882 48.5294C40.5882 46.8238 40.5882 19.4996 40.5882 17.7941L44.1176 16.7157L47.647 17.7941V48.5294Z" fill="#FD445F"/>
<path d="M40.5882 17.7941C39.7342 17.7941 34.3891 17.7941 33.5294 17.7941C33.5294 17.0113 33.5294 12.1115 33.5294 11.3235L37.0588 10.2451L40.5882 11.3235L41.7647 14.5588L40.5882 17.7941Z" fill="#FD445F"/>
<path d="M47.647 17.7941C46.793 17.7941 41.4479 17.7941 40.5882 17.7941C40.5882 17.0113 40.5882 12.1115 40.5882 11.3235L44.1176 10.2451L47.647 11.3235V17.7941Z" fill="#E30F5A"/>
<path d="M40.5882 11.3235C39.7342 11.3235 34.3891 11.3235 33.5294 11.3235C33.5294 9.14574 33.5294 4.50396 33.5294 3.23529H40.5882L41.7647 7.27941L40.5882 11.3235Z" fill="#FD7C50"/>
<path d="M47.647 11.3235C46.793 11.3235 41.4479 11.3235 40.5882 11.3235C40.5882 9.14574 40.5882 4.50396 40.5882 3.23529H47.647V11.3235Z" fill="#FD445F"/>
<path d="M40.5882 55C39.7342 55 34.3891 55 33.5294 55C33.5294 54.2172 33.5294 49.3174 33.5294 48.5294H40.5882L41.7647 51.7647L40.5882 55Z" fill="#FD445F"/>
<path d="M47.647 55C46.793 55 41.4479 55 40.5882 55C40.5882 54.2172 40.5882 49.3174 40.5882 48.5294H47.647V55Z" fill="#E30F5A"/>
<path d="M40.5882 42.0588C39.9711 42.0588 39.4407 42.0588 38.8235 42.0588C38.8235 41.5568 38.8235 24.7664 38.8235 24.2647H40.5882L41.7647 33.1618L40.5882 42.0588Z" fill="#FD445F"/>
<path d="M42.3529 42.0588C41.7357 42.0588 41.2054 42.0588 40.5882 42.0588C40.5882 41.5568 40.5882 24.7664 40.5882 24.2647H42.3529V42.0588Z" fill="#E30F5A"/>
<path d="M84.7637 30.1191L88.4727 40.209C88.8008 41.0762 89.5039 41.5098 90.582 41.5098H96.2773C97.9297 41.5098 98.7559 42.0898 98.7559 43.25C98.7559 44.0469 98.4629 44.668 97.877 45.1133C97.291 45.5703 96.4766 45.7988 95.4336 45.7988H89.5977C88.0508 45.7988 86.9609 45.582 86.3281 45.1484C85.6953 44.7266 85.1211 43.8359 84.6055 42.4766L79.9473 29.8906L76.3086 38.8379C75.6055 40.5957 74.6035 41.4746 73.3027 41.4746C72.7637 41.4746 72.3008 41.2988 71.9141 40.9473C71.5273 40.5957 71.334 40.1797 71.334 39.6992C71.334 39.3125 71.4336 38.8672 71.6328 38.3633L71.8438 37.8535L76.4141 26.6035C77.1055 24.8926 77.4512 23.709 77.4512 23.0527C77.4512 22.4785 77.1992 21.9863 76.6953 21.5762C76.2031 21.1543 75.623 20.9434 74.9551 20.9434C73.7598 20.9434 72.6816 21.4473 71.7207 22.4551C70.7715 23.4512 70.2969 24.5703 70.2969 25.8125C70.2969 27.1719 71.0293 28.1152 72.4941 28.6426C73.3848 28.959 73.8301 29.5098 73.8301 30.2949C73.8301 30.9512 73.5723 31.4961 73.0566 31.9297C72.5527 32.3516 71.9199 32.5625 71.1582 32.5625C69.6934 32.5625 68.4395 31.9414 67.3965 30.6992C66.3535 29.457 65.832 27.9746 65.832 26.252C65.832 23.6855 66.7871 21.4473 68.6973 19.5371C70.6191 17.6152 72.8691 16.6543 75.4473 16.6543C77.3691 16.6543 78.9746 17.2168 80.2637 18.3418C81.5527 19.4668 82.1973 20.873 82.1973 22.5605C82.1973 23.7559 81.8926 25.1035 81.2832 26.6035L80.668 28.0977L89.8965 18.4473C90.8926 17.4043 91.8008 16.8828 92.6211 16.8828C93.1836 16.8828 93.6523 17.0703 94.0273 17.4453C94.4023 17.8086 94.5898 18.2715 94.5898 18.834C94.5898 19.5254 94.1152 20.3691 93.166 21.3652L84.7637 30.1191ZM105.014 37.168H107.123C108.611 37.168 109.355 37.6895 109.355 38.7324C109.355 39.4473 109.092 40.0039 108.564 40.4023C108.037 40.8008 107.311 41 106.385 41H102.711C101.996 41 101.393 40.7832 100.9 40.3496C100.42 39.916 100.18 39.3711 100.18 38.7148C100.18 38.3164 100.344 37.7188 100.672 36.9219L102.219 33.0898C102.383 32.6914 102.471 32.3691 102.482 32.123C102.494 31.8418 102.377 31.6016 102.131 31.4023C101.896 31.2031 101.592 31.1035 101.217 31.1035C100.01 31.1035 99.0371 32.0117 98.2988 33.8281L96.2246 38.9258C95.6035 40.4727 94.6777 41.2461 93.4473 41.2461C92.9434 41.2461 92.5156 41.0938 92.1641 40.7891C91.8125 40.4844 91.6367 40.1094 91.6367 39.6641C91.6367 39.3359 91.7305 38.9434 91.918 38.4863L92.1113 38.0117L95.6621 29.2578C96.1191 28.1211 96.8984 27.5527 98 27.5527C98.9023 27.5527 99.5469 27.9512 99.9336 28.748C101.188 27.7871 102.383 27.3066 103.52 27.3066C104.621 27.3066 105.529 27.623 106.244 28.2559C106.959 28.8887 107.316 29.6914 107.316 30.6641C107.316 31.2031 107.188 31.7949 106.93 32.4395L105.014 37.168ZM114.91 37.168H116.896C118.373 37.168 119.111 37.6895 119.111 38.7324C119.111 39.4473 118.848 40.0039 118.32 40.4023C117.805 40.8008 117.078 41 116.141 41H113.346C112.314 41 111.5 40.7891 110.902 40.3672C110.316 39.9453 110.023 39.3711 110.023 38.6445C110.023 38.2578 110.146 37.7656 110.393 37.168L113.293 30.0312L113.486 29.5391C114.025 28.2148 114.893 27.5527 116.088 27.5527C116.58 27.5527 117.002 27.7168 117.354 28.0449C117.717 28.373 117.898 28.7656 117.898 29.2227C117.898 29.5977 117.74 30.1719 117.424 30.9453L114.91 37.168ZM117.23 21.9453C117.91 21.9453 118.484 22.1855 118.953 22.666C119.434 23.1348 119.674 23.709 119.674 24.3887C119.674 25.0684 119.434 25.6484 118.953 26.1289C118.484 26.5977 117.91 26.832 117.23 26.832C116.551 26.832 115.971 26.5977 115.49 26.1289C115.021 25.6484 114.787 25.0684 114.787 24.3887C114.787 23.709 115.021 23.1348 115.49 22.666C115.971 22.1855 116.551 21.9453 117.23 21.9453ZM130.15 41.4922H132.26C133.748 41.4922 134.492 42.0078 134.492 43.0391C134.492 43.7539 134.229 44.3105 133.701 44.709C133.174 45.1191 132.447 45.3242 131.521 45.3242H128.604L127.865 47.1348C126.072 51.5293 123.453 53.7266 120.008 53.7266C118.203 53.7266 116.703 53.1699 115.508 52.0566C114.301 50.9434 113.697 49.5488 113.697 47.873C113.697 46.7832 113.99 45.7578 114.576 44.7969C115.15 43.8477 115.941 43.0918 116.949 42.5293C118.191 41.8379 119.861 41.4922 121.959 41.4922H125.738L126.283 40.1211C125.545 40.5664 124.848 40.7891 124.191 40.7891C122.938 40.7891 121.918 40.3555 121.133 39.4883C120.359 38.6211 119.973 37.4902 119.973 36.0957C119.973 33.8457 120.764 31.8184 122.346 30.0137C123.928 28.209 125.703 27.3066 127.672 27.3066C129.113 27.3066 130.191 27.7754 130.906 28.7129C131.457 27.7754 132.236 27.3066 133.244 27.3066C133.736 27.3066 134.152 27.4707 134.492 27.7988C134.844 28.1152 135.02 28.502 135.02 28.959C135.02 29.3223 134.867 29.8789 134.562 30.6289L130.15 41.4922ZM127.865 36.2188L129.289 32.7383C129.406 32.4453 129.465 32.2051 129.465 32.0176C129.465 31.666 129.307 31.373 128.99 31.1387C128.686 30.9043 128.299 30.7871 127.83 30.7871C126.986 30.7871 126.178 31.2734 125.404 32.2461C124.643 33.207 124.262 34.2266 124.262 35.3047C124.262 36.5352 124.836 37.1504 125.984 37.1504C126.98 37.1504 127.607 36.8398 127.865 36.2188ZM124.174 45.3242H121.133C120.078 45.3242 119.258 45.5469 118.672 45.9922C118.098 46.4375 117.811 47.0645 117.811 47.873C117.811 48.4238 118.01 48.8926 118.408 49.2793C118.807 49.666 119.299 49.8594 119.885 49.8594C120.729 49.8594 121.467 49.5254 122.1 48.8574C122.732 48.1895 123.424 47.0117 124.174 45.3242ZM143.615 27.3066C145.314 27.3066 146.709 27.8457 147.799 28.9238C148.9 30.002 149.451 31.373 149.451 33.0371C149.451 34.291 149.164 35.5391 148.59 36.7812C148.016 38.0117 147.271 38.9961 146.357 39.7344C145.748 40.2148 145.115 40.5488 144.459 40.7363C143.814 40.9121 142.906 41 141.734 41C139.824 41 138.535 40.7715 137.867 40.3145C136.297 39.2363 135.512 37.6426 135.512 35.5332C135.512 33.3066 136.314 31.3789 137.92 29.75C139.525 28.1211 141.424 27.3066 143.615 27.3066ZM143.193 31.0508C142.326 31.0508 141.535 31.4785 140.82 32.334C140.105 33.1895 139.748 34.1328 139.748 35.1641C139.748 36.5234 140.51 37.2031 142.033 37.2031C142.924 37.2031 143.609 36.9277 144.09 36.377C144.887 35.4746 145.285 34.4434 145.285 33.2832C145.285 32.6152 145.092 32.0762 144.705 31.666C144.318 31.2559 143.814 31.0508 143.193 31.0508ZM171.529 37.168H173.621C175.098 37.168 175.836 37.6895 175.836 38.7324C175.836 39.4473 175.572 40.0039 175.045 40.4023C174.529 40.8008 173.809 41 172.883 41H169.314C168.541 41 167.914 40.7949 167.434 40.3848C166.953 39.9746 166.713 39.4355 166.713 38.7676C166.713 38.3105 166.871 37.6895 167.188 36.9043L168.84 32.8789C168.934 32.6445 168.98 32.4277 168.98 32.2285C168.98 31.4668 168.594 31.0859 167.82 31.0859C167.223 31.0859 166.631 31.3555 166.045 31.8945C165.459 32.4336 164.99 33.1484 164.639 34.0391L162.67 38.8906C162.025 40.4609 161.088 41.2461 159.857 41.2461C159.377 41.2461 158.967 41.0879 158.627 40.7715C158.287 40.4551 158.117 40.0801 158.117 39.6465C158.117 39.3066 158.205 38.9082 158.381 38.4512L158.574 37.9766L160.561 33.0723C160.736 32.6387 160.824 32.2988 160.824 32.0527C160.824 31.7949 160.707 31.5723 160.473 31.3848C160.238 31.1855 159.963 31.0859 159.646 31.0859C158.381 31.0859 157.379 32 156.641 33.8281L154.584 38.873C153.939 40.4551 153.008 41.2461 151.789 41.2461C151.309 41.2461 150.893 41.0938 150.541 40.7891C150.201 40.4727 150.031 40.0918 150.031 39.6465C150.031 39.2949 150.119 38.8965 150.295 38.4512L150.488 37.9766L153.986 29.3633C154.479 28.1562 155.217 27.5527 156.201 27.5527C157.221 27.5527 157.854 28.0332 158.1 28.9941C158.896 28.3145 159.541 27.8633 160.033 27.6406C160.537 27.418 161.152 27.3066 161.879 27.3066C163.449 27.3066 164.627 27.9922 165.412 29.3633C166.725 27.9922 168.201 27.3066 169.842 27.3066C170.967 27.3066 171.904 27.6348 172.654 28.291C173.416 28.9355 173.797 29.7324 173.797 30.6816C173.797 31.2793 173.668 31.8945 173.41 32.5273L171.529 37.168ZM188.51 37.168H190.443C191.92 37.168 192.658 37.6836 192.658 38.7148C192.658 39.4297 192.395 39.9922 191.867 40.4023C191.34 40.8008 190.613 41 189.688 41H187.438C186.43 41 185.744 40.6074 185.381 39.8223C184.502 40.6074 183.652 41 182.832 41H180.828C179.539 41 178.496 40.543 177.699 39.6289C176.914 38.7031 176.521 37.4961 176.521 36.0078C176.521 33.7578 177.295 31.748 178.842 29.9785C180.4 28.1973 182.158 27.3066 184.115 27.3066C185.615 27.3066 186.711 27.8281 187.402 28.8711C187.988 27.9922 188.756 27.5527 189.705 27.5527C190.221 27.5527 190.648 27.7168 190.988 28.0449C191.34 28.373 191.516 28.7773 191.516 29.2578C191.516 29.5859 191.422 29.9785 191.234 30.4355L191.041 30.9102L188.51 37.168ZM182.129 37.2559H182.568C183.529 37.2559 184.168 36.8633 184.484 36.0781L185.715 33.0371C185.879 32.6387 185.961 32.3047 185.961 32.0352C185.961 31.7188 185.803 31.4434 185.486 31.209C185.182 30.9746 184.812 30.8574 184.379 30.8574C183.523 30.8574 182.691 31.3555 181.883 32.3516C181.074 33.3477 180.67 34.3789 180.67 35.4453C180.67 36.6523 181.156 37.2559 182.129 37.2559ZM206.369 37.168H208.479C209.967 37.168 210.711 37.6895 210.711 38.7324C210.711 39.4473 210.447 40.0039 209.92 40.4023C209.393 40.8008 208.666 41 207.74 41H204.066C203.352 41 202.748 40.7832 202.256 40.3496C201.775 39.916 201.535 39.3711 201.535 38.7148C201.535 38.3164 201.699 37.7188 202.027 36.9219L203.574 33.0898C203.738 32.6914 203.826 32.3691 203.838 32.123C203.85 31.8418 203.732 31.6016 203.486 31.4023C203.252 31.2031 202.947 31.1035 202.572 31.1035C201.365 31.1035 200.393 32.0117 199.654 33.8281L197.58 38.9258C196.959 40.4727 196.033 41.2461 194.803 41.2461C194.299 41.2461 193.871 41.0938 193.52 40.7891C193.168 40.4844 192.992 40.1094 192.992 39.6641C192.992 39.3359 193.086 38.9434 193.273 38.4863L193.467 38.0117L197.018 29.2578C197.475 28.1211 198.254 27.5527 199.355 27.5527C200.258 27.5527 200.902 27.9512 201.289 28.748C202.543 27.7871 203.738 27.3066 204.875 27.3066C205.977 27.3066 206.885 27.623 207.6 28.2559C208.314 28.8887 208.672 29.6914 208.672 30.6641C208.672 31.2031 208.543 31.7949 208.285 32.4395L206.369 37.168ZM216.266 37.168H218.252C219.729 37.168 220.467 37.6895 220.467 38.7324C220.467 39.4473 220.203 40.0039 219.676 40.4023C219.16 40.8008 218.434 41 217.496 41H214.701C213.67 41 212.855 40.7891 212.258 40.3672C211.672 39.9453 211.379 39.3711 211.379 38.6445C211.379 38.2578 211.502 37.7656 211.748 37.168L214.648 30.0312L214.842 29.5391C215.381 28.2148 216.248 27.5527 217.443 27.5527C217.936 27.5527 218.357 27.7168 218.709 28.0449C219.072 28.373 219.254 28.7656 219.254 29.2227C219.254 29.5977 219.096 30.1719 218.779 30.9453L216.266 37.168ZM218.586 21.9453C219.266 21.9453 219.84 22.1855 220.309 22.666C220.789 23.1348 221.029 23.709 221.029 24.3887C221.029 25.0684 220.789 25.6484 220.309 26.1289C219.84 26.5977 219.266 26.832 218.586 26.832C217.906 26.832 217.326 26.5977 216.846 26.1289C216.377 25.6484 216.143 25.0684 216.143 24.3887C216.143 23.709 216.377 23.1348 216.846 22.666C217.326 22.1855 217.906 21.9453 218.586 21.9453ZM233.158 37.168H235.092C236.568 37.168 237.307 37.6836 237.307 38.7148C237.307 39.4297 237.043 39.9922 236.516 40.4023C235.988 40.8008 235.262 41 234.336 41H232.086C231.078 41 230.393 40.6074 230.029 39.8223C229.15 40.6074 228.301 41 227.48 41H225.477C224.188 41 223.145 40.543 222.348 39.6289C221.562 38.7031 221.17 37.4961 221.17 36.0078C221.17 33.7578 221.943 31.748 223.49 29.9785C225.049 28.1973 226.807 27.3066 228.764 27.3066C230.264 27.3066 231.359 27.8281 232.051 28.8711C232.637 27.9922 233.404 27.5527 234.354 27.5527C234.869 27.5527 235.297 27.7168 235.637 28.0449C235.988 28.373 236.164 28.7773 236.164 29.2578C236.164 29.5859 236.07 29.9785 235.883 30.4355L235.689 30.9102L233.158 37.168ZM226.777 37.2559H227.217C228.178 37.2559 228.816 36.8633 229.133 36.0781L230.363 33.0371C230.527 32.6387 230.609 32.3047 230.609 32.0352C230.609 31.7188 230.451 31.4434 230.135 31.209C229.83 30.9746 229.461 30.8574 229.027 30.8574C228.172 30.8574 227.34 31.3555 226.531 32.3516C225.723 33.3477 225.318 34.3789 225.318 35.4453C225.318 36.6523 225.805 37.2559 226.777 37.2559Z" fill="black"/>
</svg>
